<?xml version="1.0" encoding="UTF-8"?>
<!-- This file is generated by npm run build:icons -->
<svg xmlns="http://www.w3.org/2000/svg" xmlns:xlink="http://www.w3.org/1999/xlink" width="0" height="0">
<defs>
<symbol viewBox="0 0 24 24" fill="none" stroke="currentColor" stroke-width="2" stroke-linecap="round" stroke-linejoin="round" id="tabler/calendar-clock-outline">
  <path d="M10.5 21h-4.5a2 2 0 0 1 -2 -2v-12a2 2 0 0 1 2 -2h12a2 2 0 0 1 2 2v3" ></path>
  <path d="M16 3v4" ></path>
  <path d="M8 3v4" ></path>
  <path d="M4 11h10" ></path>
  <path d="M18 18m-4 0a4 4 0 1 0 8 0a4 4 0 1 0 -8 0" ></path>
  <path d="M18 16.5v1.5l.5 .5" ></path>
</symbol>
<symbol viewBox="0 0 24 24" fill="none" stroke="currentColor" stroke-width="2" stroke-linecap="round" stroke-linejoin="round" id="tabler/chevron-down-outline">
  <path d="M6 9l6 6l6 -6" ></path>
</symbol>
<symbol viewBox="0 0 24 24" fill="none" stroke="currentColor" stroke-width="2" stroke-linecap="round" stroke-linejoin="round" id="tabler/chevron-left-outline">
  <path d="M15 6l-6 6l6 6" ></path>
</symbol>
<symbol viewBox="0 0 24 24" fill="none" stroke="currentColor" stroke-width="2" stroke-linecap="round" stroke-linejoin="round" id="tabler/chevron-right-outline">
  <path d="M9 6l6 6l-6 6" ></path>
</symbol>
<symbol viewBox="0 0 24 24" fill="none" stroke="currentColor" stroke-width="2" stroke-linecap="round" stroke-linejoin="round" id="tabler/chevron-up-outline">
  <path d="M6 15l6 -6l6 6" ></path>
</symbol>
<symbol viewBox="0 0 24 24" fill="currentColor" id="tabler/circle-check-filled">
  <path d="M17 3.34a10 10 0 1 1 -14.995 8.984l-.005 -.324l.005 -.324a10 10 0 0 1 14.995 -8.336zm-1.293 5.953a1 1 0 0 0 -1.32 -.083l-.094 .083l-3.293 3.292l-1.293 -1.292l-.094 -.083a1 1 0 0 0 -1.403 1.403l.083 .094l2 2l.094 .083a1 1 0 0 0 1.226 0l.094 -.083l4 -4l.083 -.094a1 1 0 0 0 -.083 -1.32z" ></path>
</symbol>
<symbol viewBox="0 0 24 24" fill="none" stroke="currentColor" stroke-width="2" stroke-linecap="round" stroke-linejoin="round" id="tabler/circle-dashed-plus-outline">
  <path d="M8.56 3.69a9 9 0 0 0 -2.92 1.95" ></path>
  <path d="M3.69 8.56a9 9 0 0 0 -.69 3.44" ></path>
  <path d="M3.69 15.44a9 9 0 0 0 1.95 2.92" ></path>
  <path d="M8.56 20.31a9 9 0 0 0 3.44 .69" ></path>
  <path d="M15.44 20.31a9 9 0 0 0 2.92 -1.95" ></path>
  <path d="M20.31 15.44a9 9 0 0 0 .69 -3.44" ></path>
  <path d="M20.31 8.56a9 9 0 0 0 -1.95 -2.92" ></path>
  <path d="M15.44 3.69a9 9 0 0 0 -3.44 -.69" ></path>
  <path d="M9 12h6" ></path>
  <path d="M12 9v6" ></path>
</symbol>
<symbol viewBox="0 0 24 24" fill="currentColor" id="tabler/circle-x-filled">
  <path d="M17 3.34a10 10 0 1 1 -14.995 8.984l-.005 -.324l.005 -.324a10 10 0 0 1 14.995 -8.336zm-6.489 5.8a1 1 0 0 0 -1.218 1.567l1.292 1.293l-1.292 1.293l-.083 .094a1 1 0 0 0 1.497 1.32l1.293 -1.292l1.293 1.292l.094 .083a1 1 0 0 0 1.32 -1.497l-1.292 -1.293l1.292 -1.293l.083 -.094a1 1 0 0 0 -1.497 -1.32l-1.293 1.292l-1.293 -1.292l-.094 -.083z" ></path>
</symbol>
<symbol viewBox="0 0 24 24" fill="none" stroke="currentColor" stroke-width="2" stroke-linecap="round" stroke-linejoin="round" id="tabler/clock-2-outline">
  <path d="M4 4m0 1a1 1 0 0 1 1 -1h14a1 1 0 0 1 1 1v14a1 1 0 0 1 -1 1h-14a1 1 0 0 1 -1 -1z" ></path>
  <path d="M12 7v5l3 3" ></path>
  <path d="M4 12h1" ></path>
  <path d="M19 12h1" ></path>
  <path d="M12 19v1" ></path>
</symbol>
<symbol viewBox="0 0 24 24" fill="currentColor" id="tabler/dashboard-filled">
  <path d="M12 2.954a10 10 0 0 1 6.222 17.829a1 1 0 0 1 -.622 .217h-11.2a1 1 0 0 1 -.622 -.217a10 10 0 0 1 6.222 -17.829m4.207 5.839a1 1 0 0 0 -1.414 0l-2.276 2.274a2.003 2.003 0 0 0 -2.514 1.815l-.003 .118a2 2 0 1 0 3.933 -.517l2.274 -2.276a1 1 0 0 0 0 -1.414" ></path>
</symbol>
<symbol viewBox="0 0 24 24" fill="none" stroke="currentColor" stroke-width="2" stroke-linecap="round" stroke-linejoin="round" id="tabler/dashboard-outline">
  <path d="M12 13m-2 0a2 2 0 1 0 4 0a2 2 0 1 0 -4 0" ></path>
  <path d="M13.45 11.55l2.05 -2.05" ></path>
  <path d="M6.4 20a9 9 0 1 1 11.2 0z" ></path>
</symbol>
<symbol viewBox="0 0 24 24" fill="none" stroke="currentColor" stroke-width="2" stroke-linecap="round" stroke-linejoin="round" id="tabler/file-export-outline">
  <path d="M14 3v4a1 1 0 0 0 1 1h4" ></path>
  <path d="M11.5 21h-4.5a2 2 0 0 1 -2 -2v-14a2 2 0 0 1 2 -2h7l5 5v5m-5 6h7m-3 -3l3 3l-3 3" ></path>
</symbol>
<symbol viewBox="0 0 24 24" fill="none" stroke="currentColor" stroke-width="2" stroke-linecap="round" stroke-linejoin="round" id="tabler/filter-outline">
  <path d="M4 4h16v2.172a2 2 0 0 1 -.586 1.414l-4.414 4.414v7l-6 2v-8.5l-4.48 -4.928a2 2 0 0 1 -.52 -1.345v-2.227z" ></path>
</symbol>
<symbol viewBox="0 0 24 24" fill="none" stroke="currentColor" stroke-width="2" stroke-linecap="round" stroke-linejoin="round" id="tabler/grid-4x4-outline">
  <path d="M3 6h18" ></path>
  <path d="M3 12h18" ></path>
  <path d="M3 18h18" ></path>
  <path d="M6 3v18" ></path>
  <path d="M12 3v18" ></path>
  <path d="M18 3v18" ></path>
</symbol>
<symbol viewBox="0 0 24 24" fill="currentColor" id="tabler/moon-filled">
  <path d="M12 1.992a10 10 0 1 0 9.236 13.838c.341 -.82 -.476 -1.644 -1.298 -1.31a6.5 6.5 0 0 1 -6.864 -10.787l.077 -.08c.551 -.63 .113 -1.653 -.758 -1.653h-.266l-.068 -.006l-.06 -.002z" ></path>
</symbol>
<symbol viewBox="0 0 24 24" fill="none" stroke="currentColor" stroke-width="2" stroke-linecap="round" stroke-linejoin="round" id="tabler/moon-outline">
  <path d="M12 3c.132 0 .263 0 .393 0a7.5 7.5 0 0 0 7.92 12.446a9 9 0 1 1 -8.313 -12.454z" ></path>
</symbol>
<symbol viewBox="0 0 24 24" fill="none" stroke="currentColor" stroke-width="2" stroke-linecap="round" stroke-linejoin="round" id="tabler/pencil-outline">
  <path d="M4 20h4l10.5 -10.5a2.828 2.828 0 1 0 -4 -4l-10.5 10.5v4" ></path>
  <path d="M13.5 6.5l4 4" ></path>
</symbol>
<symbol viewBox="0 0 24 24" fill="none" stroke="currentColor" stroke-width="2" stroke-linecap="round" stroke-linejoin="round" id="tabler/plus-outline">
  <path d="M12 5l0 14" ></path>
  <path d="M5 12l14 0" ></path>
</symbol>
<symbol viewBox="0 0 24 24" fill="none" stroke="currentColor" stroke-width="2" stroke-linecap="round" stroke-linejoin="round" id="tabler/search-outline">
  <path d="M10 10m-7 0a7 7 0 1 0 14 0a7 7 0 1 0 -14 0" ></path>
  <path d="M21 21l-6 -6" ></path>
</symbol>
<symbol viewBox="0 0 24 24" fill="none" stroke="currentColor" stroke-width="2" stroke-linecap="round" stroke-linejoin="round" id="tabler/settings-2-outline">
  <path d="M19.875 6.27a2.225 2.225 0 0 1 1.125 1.948v7.284c0 .809 -.443 1.555 -1.158 1.948l-6.75 4.27a2.269 2.269 0 0 1 -2.184 0l-6.75 -4.27a2.225 2.225 0 0 1 -1.158 -1.948v-7.285c0 -.809 .443 -1.554 1.158 -1.947l6.75 -3.98a2.33 2.33 0 0 1 2.25 0l6.75 3.98h-.033z" ></path>
  <path d="M12 12m-3 0a3 3 0 1 0 6 0a3 3 0 1 0 -6 0" ></path>
</symbol>
<symbol viewBox="0 0 24 24" fill="currentColor" id="tabler/sun-filled">
  <path d="M12 19a1 1 0 0 1 .993 .883l.007 .117v1a1 1 0 0 1 -1.993 .117l-.007 -.117v-1a1 1 0 0 1 1 -1z" ></path>
  <path d="M18.313 16.91l.094 .083l.7 .7a1 1 0 0 1 -1.32 1.497l-.094 -.083l-.7 -.7a1 1 0 0 1 1.218 -1.567l.102 .07z" ></path>
  <path d="M7.007 16.993a1 1 0 0 1 .083 1.32l-.083 .094l-.7 .7a1 1 0 0 1 -1.497 -1.32l.083 -.094l.7 -.7a1 1 0 0 1 1.414 0z" ></path>
  <path d="M4 11a1 1 0 0 1 .117 1.993l-.117 .007h-1a1 1 0 0 1 -.117 -1.993l.117 -.007h1z" ></path>
  <path d="M21 11a1 1 0 0 1 .117 1.993l-.117 .007h-1a1 1 0 0 1 -.117 -1.993l.117 -.007h1z" ></path>
  <path d="M6.213 4.81l.094 .083l.7 .7a1 1 0 0 1 -1.32 1.497l-.094 -.083l-.7 -.7a1 1 0 0 1 1.217 -1.567l.102 .07z" ></path>
  <path d="M19.107 4.893a1 1 0 0 1 .083 1.32l-.083 .094l-.7 .7a1 1 0 0 1 -1.497 -1.32l.083 -.094l.7 -.7a1 1 0 0 1 1.414 0z" ></path>
  <path d="M12 2a1 1 0 0 1 .993 .883l.007 .117v1a1 1 0 0 1 -1.993 .117l-.007 -.117v-1a1 1 0 0 1 1 -1z" ></path>
  <path d="M12 7a5 5 0 1 1 -4.995 5.217l-.005 -.217l.005 -.217a5 5 0 0 1 4.995 -4.783z" ></path>
</symbol>
<symbol viewBox="0 0 24 24" fill="none" stroke="currentColor" stroke-width="2" stroke-linecap="round" stroke-linejoin="round" id="tabler/sun-outline">
  <path d="M12 12m-4 0a4 4 0 1 0 8 0a4 4 0 1 0 -8 0" ></path>
  <path d="M3 12h1m8 -9v1m8 8h1m-9 8v1m-6.4 -15.4l.7 .7m12.1 -.7l-.7 .7m0 11.4l.7 .7m-12.1 -.7l-.7 .7" ></path>
</symbol>
<symbol viewBox="0 0 24 24" fill="none" stroke="currentColor" stroke-width="2" stroke-linecap="round" stroke-linejoin="round" id="tabler/tags-outline">
  <path d="M3 8v4.172a2 2 0 0 0 .586 1.414l5.71 5.71a2.41 2.41 0 0 0 3.408 0l3.592 -3.592a2.41 2.41 0 0 0 0 -3.408l-5.71 -5.71a2 2 0 0 0 -1.414 -.586h-4.172a2 2 0 0 0 -2 2z" ></path>
  <path d="M18 19l1.592 -1.592a4.82 4.82 0 0 0 0 -6.816l-4.592 -4.592" ></path>
  <path d="M7 10h-.01" ></path>
</symbol>
<symbol viewBox="0 0 24 24" fill="none" stroke="currentColor" stroke-width="2" stroke-linecap="round" stroke-linejoin="round" id="tabler/trash-outline">
  <path d="M4 7l16 0" ></path>
  <path d="M10 11l0 6" ></path>
  <path d="M14 11l0 6" ></path>
  <path d="M5 7l1 12a2 2 0 0 0 2 2h8a2 2 0 0 0 2 -2l1 -12" ></path>
  <path d="M9 7v-3a1 1 0 0 1 1 -1h4a1 1 0 0 1 1 1v3" ></path>
</symbol>
<symbol viewBox="0 0 24 24" fill="none" stroke="currentColor" stroke-width="2" stroke-linecap="round" stroke-linejoin="round" id="tabler/users-group-outline">
  <path d="M10 13a2 2 0 1 0 4 0a2 2 0 0 0 -4 0" ></path>
  <path d="M8 21v-1a2 2 0 0 1 2 -2h4a2 2 0 0 1 2 2v1" ></path>
  <path d="M15 5a2 2 0 1 0 4 0a2 2 0 0 0 -4 0" ></path>
  <path d="M17 10h2a2 2 0 0 1 2 2v1" ></path>
  <path d="M5 5a2 2 0 1 0 4 0a2 2 0 0 0 -4 0" ></path>
  <path d="M3 13v-1a2 2 0 0 1 2 -2h2" ></path>
</symbol>
<symbol viewBox="0 0 24 24" fill="none" stroke="currentColor" stroke-width="2" stroke-linecap="round" stroke-linejoin="round" id="tabler/users-outline">
  <path d="M9 7m-4 0a4 4 0 1 0 8 0a4 4 0 1 0 -8 0" ></path>
  <path d="M3 21v-2a4 4 0 0 1 4 -4h4a4 4 0 0 1 4 4v2" ></path>
  <path d="M16 3.13a4 4 0 0 1 0 7.75" ></path>
  <path d="M21 21v-2a4 4 0 0 0 -3 -3.85" ></path>
</symbol>
</defs>
</svg>
