<?xml version="1.0" encoding="UTF-8"?>
<!-- This file is generated by npm run build:icons -->
<svg xmlns="http://www.w3.org/2000/svg" xmlns:xlink="http://www.w3.org/1999/xlink" width="0" height="0">
<defs>
<symbol viewBox="0 0 24 24" fill="none" stroke="currentColor" stroke-width="2" stroke-linecap="round" stroke-linejoin="round" class="icon icon-tabler icons-tabler-outline icon-tabler-baseline-density-large" id="tabler/baseline-density-large"><path stroke="none" d="M0 0h24v24H0z" fill="none"></path><path d="M4 4h16" ></path><path d="M4 20h16" ></path></symbol>
<symbol viewBox="0 0 24 24" fill="none" stroke="currentColor" stroke-width="2" stroke-linecap="round" stroke-linejoin="round" class="icon icon-tabler icons-tabler-outline icon-tabler-baseline-density-medium" id="tabler/baseline-density-medium"><path stroke="none" d="M0 0h24v24H0z" fill="none"></path><path d="M4 20h16" ></path><path d="M4 12h16" ></path><path d="M4 4h16" ></path></symbol>
<symbol viewBox="0 0 24 24" fill="none" stroke="currentColor" stroke-width="2" stroke-linecap="round" stroke-linejoin="round" class="icon icon-tabler icons-tabler-outline icon-tabler-baseline-density-small" id="tabler/baseline-density-small"><path stroke="none" d="M0 0h24v24H0z" fill="none"></path><path d="M4 3h16" ></path><path d="M4 9h16" ></path><path d="M4 15h16" ></path><path d="M4 21h16" ></path></symbol>
<symbol viewBox="0 0 24 24" fill="none" stroke="currentColor" stroke-width="2" stroke-linecap="round" stroke-linejoin="round" id="tabler/calendar-clock-outline">
  <path d="M10.5 21h-4.5a2 2 0 0 1 -2 -2v-12a2 2 0 0 1 2 -2h12a2 2 0 0 1 2 2v3" ></path>
  <path d="M16 3v4" ></path>
  <path d="M8 3v4" ></path>
  <path d="M4 11h10" ></path>
  <path d="M18 18m-4 0a4 4 0 1 0 8 0a4 4 0 1 0 -8 0" ></path>
  <path d="M18 16.5v1.5l.5 .5" ></path>
</symbol>
<symbol viewBox="0 0 24 24" fill="none" stroke="currentColor" stroke-width="2" stroke-linecap="round" stroke-linejoin="round" id="tabler/chevron-down-outline">
  <path d="M6 9l6 6l6 -6" ></path>
</symbol>
<symbol viewBox="0 0 24 24" fill="none" stroke="currentColor" stroke-width="2" stroke-linecap="round" stroke-linejoin="round" id="tabler/chevron-left-outline">
  <path d="M15 6l-6 6l6 6" ></path>
</symbol>
<symbol viewBox="0 0 24 24" fill="none" stroke="currentColor" stroke-width="2" stroke-linecap="round" stroke-linejoin="round" id="tabler/chevron-right-outline">
  <path d="M9 6l6 6l-6 6" ></path>
</symbol>
<symbol viewBox="0 0 24 24" fill="none" stroke="currentColor" stroke-width="2" stroke-linecap="round" stroke-linejoin="round" id="tabler/chevron-up-outline">
  <path d="M6 15l6 -6l6 6" ></path>
</symbol>
<symbol viewBox="0 0 24 24" fill="none" stroke="currentColor" stroke-width="2" stroke-linecap="round" stroke-linejoin="round" id="tabler/chevrons-right-outline">
  <path d="M7 7l5 5l-5 5" ></path>
  <path d="M13 7l5 5l-5 5" ></path>
</symbol>
<symbol viewBox="0 0 24 24" fill="currentColor" id="tabler/circle-check-filled">
  <path d="M17 3.34a10 10 0 1 1 -14.995 8.984l-.005 -.324l.005 -.324a10 10 0 0 1 14.995 -8.336zm-1.293 5.953a1 1 0 0 0 -1.32 -.083l-.094 .083l-3.293 3.292l-1.293 -1.292l-.094 -.083a1 1 0 0 0 -1.403 1.403l.083 .094l2 2l.094 .083a1 1 0 0 0 1.226 0l.094 -.083l4 -4l.083 -.094a1 1 0 0 0 -.083 -1.32z" ></path>
</symbol>
<symbol viewBox="0 0 24 24" fill="none" stroke="currentColor" stroke-width="2" stroke-linecap="round" stroke-linejoin="round" id="tabler/circle-dashed-plus-outline">
  <path d="M8.56 3.69a9 9 0 0 0 -2.92 1.95" ></path>
  <path d="M3.69 8.56a9 9 0 0 0 -.69 3.44" ></path>
  <path d="M3.69 15.44a9 9 0 0 0 1.95 2.92" ></path>
  <path d="M8.56 20.31a9 9 0 0 0 3.44 .69" ></path>
  <path d="M15.44 20.31a9 9 0 0 0 2.92 -1.95" ></path>
  <path d="M20.31 15.44a9 9 0 0 0 .69 -3.44" ></path>
  <path d="M20.31 8.56a9 9 0 0 0 -1.95 -2.92" ></path>
  <path d="M15.44 3.69a9 9 0 0 0 -3.44 -.69" ></path>
  <path d="M9 12h6" ></path>
  <path d="M12 9v6" ></path>
</symbol>
<symbol viewBox="0 0 24 24" fill="currentColor" id="tabler/circle-x-filled">
  <path d="M17 3.34a10 10 0 1 1 -14.995 8.984l-.005 -.324l.005 -.324a10 10 0 0 1 14.995 -8.336zm-6.489 5.8a1 1 0 0 0 -1.218 1.567l1.292 1.293l-1.292 1.293l-.083 .094a1 1 0 0 0 1.497 1.32l1.293 -1.292l1.293 1.292l.094 .083a1 1 0 0 0 1.32 -1.497l-1.292 -1.293l1.292 -1.293l.083 -.094a1 1 0 0 0 -1.497 -1.32l-1.293 1.292l-1.293 -1.292l-.094 -.083z" ></path>
</symbol>
<symbol viewBox="0 0 24 24" fill="none" stroke="currentColor" stroke-width="2" stroke-linecap="round" stroke-linejoin="round" id="tabler/clipboard-check-outline">
  <path d="M9 5h-2a2 2 0 0 0 -2 2v12a2 2 0 0 0 2 2h10a2 2 0 0 0 2 -2v-12a2 2 0 0 0 -2 -2h-2" ></path>
  <path d="M9 3m0 2a2 2 0 0 1 2 -2h2a2 2 0 0 1 2 2v0a2 2 0 0 1 -2 2h-2a2 2 0 0 1 -2 -2z" ></path>
  <path d="M9 14l2 2l4 -4" ></path>
</symbol>
<symbol viewBox="0 0 24 24" fill="none" stroke="currentColor" stroke-width="2" stroke-linecap="round" stroke-linejoin="round" id="tabler/clipboard-copy-outline">
  <path d="M9 5h-2a2 2 0 0 0 -2 2v12a2 2 0 0 0 2 2h3m9 -9v-5a2 2 0 0 0 -2 -2h-2" ></path>
  <path d="M13 17v-1a1 1 0 0 1 1 -1h1m3 0h1a1 1 0 0 1 1 1v1m0 3v1a1 1 0 0 1 -1 1h-1m-3 0h-1a1 1 0 0 1 -1 -1v-1" ></path>
  <path d="M9 3m0 2a2 2 0 0 1 2 -2h2a2 2 0 0 1 2 2v0a2 2 0 0 1 -2 2h-2a2 2 0 0 1 -2 -2z" ></path>
</symbol>
<symbol viewBox="0 0 24 24" fill="none" stroke="currentColor" stroke-width="2" stroke-linecap="round" stroke-linejoin="round" id="tabler/clock-2-outline">
  <path d="M4 4m0 1a1 1 0 0 1 1 -1h14a1 1 0 0 1 1 1v14a1 1 0 0 1 -1 1h-14a1 1 0 0 1 -1 -1z" ></path>
  <path d="M12 7v5l3 3" ></path>
  <path d="M4 12h1" ></path>
  <path d="M19 12h1" ></path>
  <path d="M12 19v1" ></path>
</symbol>
<symbol viewBox="0 0 24 24" fill="currentColor" id="tabler/dashboard-filled">
  <path d="M12 2.954a10 10 0 0 1 6.222 17.829a1 1 0 0 1 -.622 .217h-11.2a1 1 0 0 1 -.622 -.217a10 10 0 0 1 6.222 -17.829m4.207 5.839a1 1 0 0 0 -1.414 0l-2.276 2.274a2.003 2.003 0 0 0 -2.514 1.815l-.003 .118a2 2 0 1 0 3.933 -.517l2.274 -2.276a1 1 0 0 0 0 -1.414" ></path>
</symbol>
<symbol viewBox="0 0 24 24" fill="none" stroke="currentColor" stroke-width="2" stroke-linecap="round" stroke-linejoin="round" id="tabler/dashboard-outline">
  <path d="M12 13m-2 0a2 2 0 1 0 4 0a2 2 0 1 0 -4 0" ></path>
  <path d="M13.45 11.55l2.05 -2.05" ></path>
  <path d="M6.4 20a9 9 0 1 1 11.2 0z" ></path>
</symbol>
<symbol class="w-32 mx-auto text-gray-200 dark:text-gray-700" viewBox="0 0 571 404" fill="none" id="tabler/empty"><path class="text-white dark:text-gray-900" d="M4 393.615V10.2909C4.00182 8.623 4.66519 7.02395 5.84456 5.84457C7.02393 4.6652 8.62297 4.00183 10.2908 4H560.121C561.789 4.00182 563.388 4.6652 564.568 5.84457C565.747 7.02395 566.411 8.62299 566.412 10.2909V393.615C566.411 395.283 565.747 396.882 564.568 398.061C563.388 399.241 561.789 399.904 560.121 399.906H10.2908C8.62297 399.904 7.02393 399.241 5.84456 398.061C4.66519 396.882 4.00182 395.283 4 393.615Z" fill="currentColor"></path><path d="M10.2909 403.906C7.56431 403.9 4.95122 402.814 3.02284 400.886C1.09446 398.959 0.00765734 396.346 0 393.62V10.291C0.00648856 7.56445 1.09215 4.95136 3.01968 3.02296C4.94722 1.09457 7.55982 0.00771553 10.2864 0H560.122C562.848 0.00654955 565.461 1.09229 567.39 3.01987C569.318 4.94745 570.405 7.56007 570.412 10.2866V393.615C570.406 396.342 569.32 398.955 567.393 400.883C565.465 402.812 562.852 403.899 560.126 403.906H10.2909ZM8 393.611C8.00167 394.219 8.24404 394.802 8.67415 395.232C9.10426 395.662 9.68714 395.905 10.2954 395.906H560.122C560.729 395.904 561.311 395.661 561.74 395.231C562.169 394.801 562.411 394.218 562.412 393.611V10.291C562.41 9.68342 562.167 9.10153 561.737 8.67232C561.307 8.2431 560.725 8.00141 560.117 8H10.2909C9.68332 8.00261 9.10146 8.24542 8.67227 8.67546C8.24308 9.1055 8.00141 9.68784 8 10.2954V393.611Z" fill="currentColor"></path><path d="M469.813 93.5359C471.122 93.5574 472.37 94.0923 473.287 95.0253C474.205 95.9583 474.719 97.2146 474.719 98.5233C474.719 99.832 474.205 101.088 473.287 102.021C472.37 102.954 471.122 103.489 469.813 103.511H344.763C344.107 103.522 343.456 103.404 342.846 103.164C342.236 102.924 341.68 102.565 341.209 102.11C340.737 101.654 340.361 101.11 340.1 100.509C339.839 99.9075 339.699 99.2607 339.688 98.6053C339.677 97.9499 339.796 97.2988 340.037 96.6892C340.278 96.0796 340.637 95.5235 341.093 95.0527C341.549 94.5819 342.093 94.2056 342.695 93.9454C343.297 93.6851 343.944 93.5459 344.599 93.5359C344.654 93.5349 344.708 93.5349 344.763 93.5359H469.813Z" fill="currentColor"></path><path d="M469.812 128.791C471.121 128.813 472.368 129.348 473.286 130.281C474.204 131.214 474.718 132.47 474.718 133.779C474.718 135.087 474.204 136.344 473.286 137.277C472.368 138.21 471.121 138.745 469.812 138.766H344.761C344.106 138.777 343.456 138.658 342.847 138.418C342.237 138.177 341.681 137.819 341.211 137.363C340.74 136.908 340.364 136.364 340.103 135.763C339.843 135.162 339.703 134.515 339.692 133.861C339.681 133.206 339.8 132.555 340.04 131.946C340.281 131.336 340.639 130.781 341.095 130.31C341.55 129.839 342.094 129.463 342.695 129.202C343.296 128.942 343.943 128.802 344.598 128.791C344.652 128.79 344.707 128.79 344.761 128.791H469.812Z" fill="currentColor"></path><path d="M469.813 164.047C471.122 164.068 472.37 164.603 473.287 165.536C474.205 166.469 474.719 167.725 474.719 169.034C474.719 170.343 474.205 171.599 473.287 172.532C472.37 173.465 471.122 174 469.813 174.021H344.763C344.107 174.033 343.456 173.915 342.846 173.675C342.236 173.434 341.68 173.076 341.209 172.62C340.737 172.165 340.361 171.621 340.1 171.02C339.839 170.418 339.699 169.771 339.688 169.116C339.677 168.461 339.796 167.809 340.037 167.2C340.278 166.59 340.637 166.034 341.093 165.563C341.549 165.093 342.093 164.716 342.695 164.456C343.297 164.196 343.944 164.057 344.599 164.047C344.654 164.046 344.708 164.046 344.763 164.047H469.813Z" fill="currentColor"></path><path class="text-primary-600 dark:text-gray-500/10" d="M390.129 218.548C390.129 215.171 391.13 211.869 393.007 209.061C394.883 206.253 397.55 204.064 400.67 202.772C403.791 201.479 407.224 201.141 410.537 201.8C413.849 202.459 416.892 204.085 419.28 206.473C421.668 208.861 423.295 211.904 423.954 215.217C424.613 218.529 424.274 221.963 422.982 225.083C421.69 228.203 419.501 230.87 416.693 232.747C413.884 234.623 410.583 235.625 407.205 235.625C404.963 235.625 402.742 235.183 400.671 234.325C398.599 233.467 396.716 232.209 395.13 230.623C393.545 229.037 392.287 227.155 391.429 225.083C390.571 223.011 390.129 220.791 390.129 218.548Z" fill="currentColor"></path><path class="text-white" d="M400.465 216.864H405.518V211.81C405.519 211.364 405.696 210.937 406.012 210.622C406.327 210.306 406.754 210.129 407.2 210.128C407.646 210.127 408.074 210.303 408.39 210.617C408.707 210.932 408.885 211.359 408.887 211.805V216.864H413.941C414.388 216.864 414.816 217.041 415.132 217.357C415.448 217.673 415.625 218.101 415.625 218.548C415.625 218.995 415.448 219.423 415.132 219.739C414.816 220.055 414.388 220.233 413.941 220.233H408.887V225.286C408.886 225.732 408.708 226.159 408.392 226.474C408.076 226.788 407.649 226.965 407.203 226.965C406.757 226.965 406.33 226.788 406.014 226.474C405.698 226.159 405.52 225.732 405.518 225.286V220.233H400.465C400.244 220.233 400.025 220.19 399.82 220.106C399.616 220.021 399.43 219.898 399.273 219.742C399.116 219.585 398.992 219.4 398.907 219.196C398.822 218.992 398.778 218.773 398.777 218.551C398.777 218.33 398.82 218.111 398.904 217.907C398.989 217.702 399.112 217.516 399.268 217.359C399.425 217.203 399.61 217.078 399.814 216.993C400.018 216.908 400.237 216.864 400.459 216.864H400.465Z" fill="currentColor"></path><path class="text-gray-200 dark:text-gray-800" d="M230.124 138.892C230.134 146.869 228.712 154.782 225.925 162.256C224.659 165.679 223.107 168.99 221.284 172.151C215.423 182.378 206.966 190.875 196.768 196.785C186.57 202.694 174.993 205.807 163.206 205.807C151.42 205.807 139.842 202.694 129.644 196.785C119.446 190.875 110.99 182.378 105.129 172.151C104.536 171.123 103.973 170.079 103.441 169.02C98.8926 159.997 96.4462 150.06 96.2858 139.957C96.1254 129.853 98.2551 119.844 102.515 110.681C106.775 101.517 113.055 93.4379 120.884 87.0482C128.712 80.6585 137.886 76.1246 147.717 73.7866C157.548 71.4486 167.78 71.3672 177.647 73.5485C187.514 75.7299 196.759 80.1173 204.688 86.3816C212.617 92.6459 219.025 100.625 223.43 109.719C227.835 118.813 230.124 128.787 230.124 138.892Z" fill="currentColor"></path><path class="text-gray-300 dark:text-gray-800" d="M166.684 150.189C173.75 150.189 179.477 144.461 179.477 137.395C179.477 130.33 173.75 124.602 166.684 124.602C159.618 124.602 153.891 130.33 153.891 137.395C153.891 144.461 159.618 150.189 166.684 150.189Z" fill="currentColor"></path><path class="text-white" d="M103.441 169.02C109.078 162.928 116.613 153.257 123.681 160.245C127.227 163.541 132.778 171.71 138.092 166.37L179.586 124.876C180.367 124.105 181.294 123.497 182.313 123.09C183.333 122.682 184.423 122.482 185.521 122.502C186.618 122.521 187.701 122.76 188.705 123.204C189.708 123.648 190.614 124.288 191.367 125.087L225.925 162.256C224.659 165.679 223.107 168.989 221.284 172.151H105.129L103.441 169.02Z" fill="currentColor"></path><path class="text-primary-600" d="M221.315 325.536C220.894 325.535 220.477 325.618 220.088 325.778C219.7 325.939 219.346 326.174 219.048 326.471C218.751 326.768 218.515 327.121 218.353 327.51C218.192 327.898 218.109 328.315 218.109 328.736C218.109 329.156 218.192 329.573 218.353 329.961C218.515 330.35 218.751 330.703 219.048 331C219.346 331.297 219.7 331.533 220.088 331.693C220.477 331.854 220.894 331.936 221.315 331.935H254.888C255.309 331.936 255.726 331.854 256.115 331.693C256.503 331.533 256.857 331.297 257.154 331C257.452 330.703 257.688 330.35 257.849 329.961C258.011 329.573 258.094 329.156 258.094 328.736C258.094 328.315 258.011 327.898 257.849 327.51C257.688 327.121 257.452 326.768 257.154 326.471C256.857 326.174 256.503 325.939 256.115 325.778C255.726 325.618 255.309 325.535 254.888 325.536H221.315Z" fill="currentColor"></path><path d="M70.055 278.543C69.2064 278.543 68.3926 278.88 67.7926 279.48C67.1926 280.08 66.8555 280.894 66.8555 281.742C66.8555 282.591 67.1926 283.405 67.7926 284.005C68.3926 284.605 69.2064 284.942 70.055 284.942H256.358C257.206 284.942 258.02 284.605 258.62 284.005C259.22 283.405 259.557 282.591 259.557 281.742C259.557 280.894 259.22 280.08 258.62 279.48C258.02 278.88 257.206 278.543 256.358 278.543H70.055Z" fill="currentColor"></path><path d="M70.055 302.04C69.2064 302.04 68.3926 302.377 67.7926 302.977C67.1926 303.577 66.8555 304.39 66.8555 305.239C66.8555 306.088 67.1926 306.901 67.7926 307.501C68.3926 308.101 69.2064 308.439 70.055 308.439H256.358C257.206 308.439 258.02 308.101 258.62 307.501C259.22 306.901 259.557 306.088 259.557 305.239C259.557 304.39 259.22 303.577 258.62 302.977C258.02 302.377 257.206 302.04 256.358 302.04H70.055Z" fill="currentColor"></path><path class="text-primary-600" d="M465.315 325.536C464.894 325.535 464.477 325.618 464.088 325.778C463.7 325.939 463.346 326.174 463.049 326.471C462.751 326.768 462.515 327.121 462.354 327.51C462.192 327.898 462.109 328.315 462.109 328.736C462.109 329.156 462.192 329.573 462.354 329.961C462.515 330.35 462.751 330.703 463.049 331C463.346 331.297 463.7 331.533 464.088 331.693C464.477 331.854 464.894 331.936 465.315 331.935H498.888C499.309 331.936 499.726 331.854 500.115 331.693C500.503 331.533 500.857 331.297 501.154 331C501.452 330.703 501.688 330.35 501.849 329.961C502.011 329.573 502.094 329.156 502.094 328.736C502.094 328.315 502.011 327.898 501.849 327.51C501.688 327.121 501.452 326.768 501.154 326.471C500.857 326.174 500.503 325.939 500.115 325.778C499.726 325.618 499.309 325.535 498.888 325.536H465.315Z" fill="currentColor"></path><path d="M314.055 278.543C313.206 278.543 312.393 278.88 311.793 279.48C311.193 280.08 310.855 280.894 310.855 281.742C310.855 282.591 311.193 283.405 311.793 284.005C312.393 284.605 313.206 284.942 314.055 284.942H500.358C501.206 284.942 502.02 284.605 502.62 284.005C503.22 283.405 503.557 282.591 503.557 281.742C503.557 280.894 503.22 280.08 502.62 279.48C502.02 278.88 501.206 278.543 500.358 278.543H314.055Z" fill="currentColor"></path><path d="M314.055 302.04C313.206 302.04 312.393 302.377 311.793 302.977C311.193 303.577 310.855 304.39 310.855 305.239C310.855 306.088 311.193 306.901 311.793 307.501C312.393 308.101 313.206 308.439 314.055 308.439H500.358C501.206 308.439 502.02 308.101 502.62 307.501C503.22 306.901 503.557 306.088 503.557 305.239C503.557 304.39 503.22 303.577 502.62 302.977C502.02 302.377 501.206 302.04 500.358 302.04H314.055Z" fill="currentColor"></path></symbol>
<symbol viewBox="0 0 24 24" fill="none" stroke="currentColor" stroke-width="2" stroke-linecap="round" stroke-linejoin="round" id="tabler/file-export-outline">
  <path d="M14 3v4a1 1 0 0 0 1 1h4" ></path>
  <path d="M11.5 21h-4.5a2 2 0 0 1 -2 -2v-14a2 2 0 0 1 2 -2h7l5 5v5m-5 6h7m-3 -3l3 3l-3 3" ></path>
</symbol>
<symbol viewBox="0 0 24 24" fill="currentColor" id="tabler/file-filled">
  <path d="M12 2l.117 .007a1 1 0 0 1 .876 .876l.007 .117v4l.005 .15a2 2 0 0 0 1.838 1.844l.157 .006h4l.117 .007a1 1 0 0 1 .876 .876l.007 .117v9a3 3 0 0 1 -2.824 2.995l-.176 .005h-10a3 3 0 0 1 -2.995 -2.824l-.005 -.176v-14a3 3 0 0 1 2.824 -2.995l.176 -.005h5z" ></path>
  <path d="M19 7h-4l-.001 -4.001z" ></path>
</symbol>
<symbol viewBox="0 0 24 24" fill="none" stroke="currentColor" stroke-width="2" stroke-linecap="round" stroke-linejoin="round" id="tabler/filter-outline">
  <path d="M4 4h16v2.172a2 2 0 0 1 -.586 1.414l-4.414 4.414v7l-6 2v-8.5l-4.48 -4.928a2 2 0 0 1 -.52 -1.345v-2.227z" ></path>
</symbol>
<symbol viewBox="0 0 218 154" fill="none" id="tabler/frame">
<g clip-path="url(#clip0_1_4)">
<path d="M3.92892 153.964C2.88795 153.962 1.89031 153.548 1.15408 152.813C0.41785 152.078 0.00292347 151.082 0 150.043V3.92281C0.00247724 2.88348 0.416968 1.8874 1.15287 1.15232C1.88878 0.417237 2.88624 0.00294107 3.92721 0H213.847C214.888 0.00249661 215.885 0.416368 216.622 1.15114C217.358 1.88591 217.773 2.88181 217.775 3.92113V150.041C217.773 151.081 217.359 152.077 216.623 152.812C215.887 153.547 214.889 153.962 213.848 153.964H3.92892ZM3.05429 150.04C3.05493 150.272 3.14746 150.494 3.31167 150.658C3.47588 150.822 3.69842 150.914 3.93064 150.915H213.847C214.079 150.914 214.301 150.821 214.465 150.657C214.628 150.493 214.721 150.271 214.721 150.04V3.92281C214.72 3.6912 214.628 3.4694 214.463 3.30579C214.299 3.14217 214.077 3.05004 213.845 3.0495H3.92892C3.69696 3.0505 3.47481 3.14306 3.31095 3.30698C3.1471 3.47091 3.05483 3.69289 3.05429 3.92448V150.04Z" fill="#707174"></path>
<path d="M179.368 35.6548C179.868 35.663 180.344 35.8669 180.695 36.2225C181.045 36.5782 181.241 37.0571 181.241 37.5559C181.241 38.0548 181.045 38.5335 180.695 38.8892C180.344 39.2448 179.868 39.4488 179.368 39.4572H131.626C131.375 39.4614 131.127 39.4164 130.894 39.3249C130.661 39.2334 130.449 39.0966 130.269 38.9231C130.089 38.7493 129.945 38.5419 129.846 38.3128C129.746 38.0836 129.692 37.837 129.688 37.5872C129.684 37.3373 129.729 37.0891 129.821 36.8568C129.913 36.6244 130.051 36.4124 130.225 36.233C130.399 36.0535 130.606 35.9101 130.836 35.8109C131.066 35.7116 131.313 35.6586 131.563 35.6548C131.584 35.6544 131.605 35.6544 131.626 35.6548H179.368Z" fill="#707174"></path>
<path d="M179.368 49.0936C179.868 49.102 180.344 49.3059 180.694 49.6616C181.045 50.0172 181.241 50.496 181.241 50.995C181.241 51.4936 181.045 51.9727 180.694 52.3284C180.344 52.684 179.868 52.8879 179.368 52.896H131.625C131.375 52.9001 131.127 52.8548 130.894 52.7633C130.661 52.6714 130.449 52.535 130.27 52.3611C130.09 52.1877 129.946 51.9803 129.847 51.7512C129.747 51.5222 129.694 51.2755 129.69 51.0262C129.686 50.7765 129.731 50.5284 129.823 50.2962C129.915 50.0637 130.051 49.8522 130.225 49.6726C130.399 49.4931 130.607 49.3498 130.836 49.2503C131.066 49.1512 131.313 49.0978 131.563 49.0936C131.583 49.0932 131.604 49.0932 131.625 49.0936H179.368Z" fill="#707174"></path>
<path d="M179.368 62.5328C179.868 62.5408 180.344 62.7447 180.695 63.1004C181.045 63.456 181.241 63.9348 181.241 64.4338C181.241 64.9327 181.045 65.4115 180.695 65.7671C180.344 66.1228 179.868 66.3267 179.368 66.3347H131.626C131.375 66.3393 131.127 66.2943 130.894 66.2028C130.661 66.111 130.449 65.9745 130.269 65.8007C130.089 65.6273 129.945 65.4199 129.846 65.1908C129.746 64.9613 129.692 64.7147 129.688 64.465C129.684 64.2153 129.729 63.9668 129.821 63.7347C129.913 63.5021 130.051 63.2902 130.225 63.1107C130.399 62.9315 130.606 62.7878 130.836 62.6887C131.066 62.5896 131.313 62.5366 131.563 62.5328C131.584 62.5324 131.605 62.5324 131.626 62.5328H179.368Z" fill="#707174"></path>
<path d="M148.946 83.3079C148.946 82.0206 149.328 80.762 150.045 79.6916C150.761 78.6212 151.779 77.7868 152.97 77.2943C154.162 76.8014 155.473 76.6726 156.737 76.9238C158.002 77.175 159.164 77.7948 160.075 78.7051C160.987 79.6153 161.608 80.7753 161.86 82.0382C162.111 83.3007 161.982 84.6097 161.489 85.799C160.995 86.9883 160.16 88.0049 159.088 88.7204C158.015 89.4355 156.755 89.8175 155.465 89.8175C154.609 89.8175 153.761 89.649 152.971 89.3219C152.18 88.9948 151.461 88.5153 150.855 87.9108C150.25 87.3062 149.77 86.5888 149.442 85.799C149.115 85.0091 148.946 84.1629 148.946 83.3079Z" fill="#707174"></path>
<path d="M152.892 82.666H154.821V80.7395C154.822 80.5694 154.889 80.4067 155.01 80.2866C155.13 80.1661 155.293 80.0987 155.463 80.0983C155.634 80.0979 155.797 80.165 155.918 80.2847C156.039 80.4048 156.107 80.5675 156.107 80.7375V82.666H158.037C158.208 82.666 158.371 82.7334 158.492 82.8539C158.612 82.9744 158.68 83.1375 158.68 83.3079C158.68 83.4783 158.612 83.6414 158.492 83.7619C158.371 83.8824 158.208 83.9502 158.037 83.9502H156.107V85.8763C156.107 86.0464 156.039 86.2091 155.918 86.3292C155.798 86.4489 155.635 86.5164 155.465 86.5164C155.294 86.5164 155.131 86.4489 155.011 86.3292C154.89 86.2091 154.822 86.0464 154.821 85.8763V83.9502H152.892C152.808 83.9502 152.724 83.9338 152.646 83.9018C152.568 83.8694 152.497 83.8225 152.437 83.763C152.377 83.7032 152.33 83.6327 152.297 83.5549C152.265 83.4771 152.248 83.3937 152.248 83.309C152.248 83.2248 152.264 83.1413 152.296 83.0636C152.329 82.9854 152.376 82.9145 152.435 82.8547C152.495 82.7952 152.566 82.7476 152.644 82.7152C152.721 82.6828 152.805 82.666 152.89 82.666H152.892Z" fill="#707174"></path>
<path d="M87.8582 52.944C87.862 55.9847 87.3191 59.0011 86.2551 61.8501C85.7717 63.1549 85.1792 64.417 84.4832 65.6219C82.2456 69.5203 79.0168 72.7593 75.1233 75.0121C71.2299 77.2645 66.8099 78.4512 62.3098 78.4512C57.8101 78.4512 53.3898 77.2645 49.4963 75.0121C45.6029 72.7593 42.3745 69.5203 40.1368 65.6219C39.9104 65.2301 39.6955 64.8321 39.4924 64.4284C37.7558 60.989 36.8218 57.2011 36.7606 53.3499C36.6994 49.4984 37.5125 45.6831 39.1388 42.1903C40.7652 38.6971 43.1629 35.6174 46.1519 33.1817C49.1405 30.7461 52.643 29.0178 56.3963 28.1266C60.1497 27.2354 64.0561 27.2043 67.8232 28.0358C71.5903 28.8673 75.1199 30.5398 78.1471 32.9276C81.1743 35.3155 83.6208 38.3571 85.3025 41.8236C86.9843 45.2901 87.8582 49.0921 87.8582 52.944Z" fill="#707174"></path>
<path d="M63.6377 57.2503C66.3354 57.2503 68.5219 55.0668 68.5219 52.3733C68.5219 49.6802 66.3354 47.4968 63.6377 47.4968C60.94 47.4968 58.7535 49.6802 58.7535 52.3733C58.7535 55.0668 60.94 57.2503 63.6377 57.2503Z" fill="#707174"></path>
<path d="M39.4924 64.4284C41.6445 62.1062 44.5213 58.4197 47.2197 61.0835C48.5735 62.3399 50.6928 65.4538 52.7216 63.4183L68.5635 47.6012C68.8617 47.3074 69.2156 47.0756 69.6046 46.9204C69.994 46.7649 70.4102 46.6887 70.8294 46.6963C71.2482 46.7035 71.6617 46.7947 72.045 46.9639C72.4279 47.1331 72.7738 47.3771 73.0613 47.6817L86.2551 61.8501C85.7717 63.1549 85.1792 64.4166 84.4832 65.6219H40.1368L39.4924 64.4284Z" fill="#F2F3F4"></path>
<path d="M84.495 124.09C84.3343 124.09 84.1751 124.122 84.0266 124.183C83.8785 124.244 83.7433 124.334 83.6295 124.447C83.5161 124.56 83.426 124.695 83.3642 124.843C83.3027 124.991 83.271 125.15 83.271 125.31C83.271 125.47 83.3027 125.629 83.3642 125.777C83.426 125.926 83.5161 126.06 83.6295 126.173C83.7433 126.286 83.8785 126.376 84.0266 126.437C84.1751 126.499 84.3343 126.53 84.495 126.53H97.3128C97.4735 126.53 97.6327 126.499 97.7812 126.437C97.9293 126.376 98.0645 126.286 98.1779 126.173C98.2917 126.06 98.3818 125.926 98.4432 125.777C98.5051 125.629 98.5368 125.47 98.5368 125.31C98.5368 125.15 98.5051 124.991 98.4432 124.843C98.3818 124.695 98.2917 124.56 98.1779 124.447C98.0645 124.334 97.9293 124.244 97.7812 124.183C97.6327 124.122 97.4735 124.09 97.3128 124.09H84.495Z" fill="#00579F"></path>
<path d="M26.746 106.177C26.4221 106.177 26.1114 106.306 25.8823 106.534C25.6532 106.763 25.5245 107.073 25.5245 107.397C25.5245 107.72 25.6532 108.031 25.8823 108.259C26.1114 108.488 26.4221 108.617 26.746 108.617H97.874C98.1977 108.617 98.5085 108.488 98.7376 108.259C98.9667 108.031 99.0953 107.72 99.0953 107.397C99.0953 107.073 98.9667 106.763 98.7376 106.534C98.5085 106.306 98.1977 106.177 97.874 106.177H26.746Z" fill="#707174"></path>
<path d="M26.746 115.134C26.4221 115.134 26.1114 115.263 25.8823 115.491C25.6532 115.72 25.5245 116.03 25.5245 116.353C25.5245 116.677 25.6532 116.987 25.8823 117.216C26.1114 117.444 26.4221 117.573 26.746 117.573H97.874C98.1977 117.573 98.5085 117.444 98.7376 117.216C98.9667 116.987 99.0953 116.677 99.0953 116.353C99.0953 116.03 98.9667 115.72 98.7376 115.491C98.5085 115.263 98.1977 115.134 97.874 115.134H26.746Z" fill="#707174"></path>
<path d="M177.651 124.09C177.49 124.09 177.331 124.122 177.182 124.183C177.034 124.244 176.899 124.334 176.786 124.447C176.672 124.56 176.582 124.695 176.52 124.843C176.459 124.991 176.427 125.15 176.427 125.31C176.427 125.47 176.459 125.629 176.52 125.777C176.582 125.926 176.672 126.06 176.786 126.173C176.899 126.286 177.034 126.376 177.182 126.437C177.331 126.499 177.49 126.53 177.651 126.53H190.469C190.629 126.53 190.789 126.499 190.937 126.437C191.085 126.376 191.22 126.286 191.334 126.173C191.448 126.06 191.538 125.926 191.599 125.777C191.661 125.629 191.693 125.47 191.693 125.31C191.693 125.15 191.661 124.991 191.599 124.843C191.538 124.695 191.448 124.56 191.334 124.447C191.22 124.334 191.085 124.244 190.937 124.183C190.789 124.122 190.629 124.09 190.469 124.09H177.651Z" fill="#00579F"></path>
<path d="M119.902 106.177C119.578 106.177 119.267 106.306 119.038 106.534C118.809 106.763 118.68 107.073 118.68 107.397C118.68 107.72 118.809 108.031 119.038 108.259C119.267 108.488 119.578 108.617 119.902 108.617H191.03C191.354 108.617 191.664 108.488 191.893 108.259C192.123 108.031 192.251 107.72 192.251 107.397C192.251 107.073 192.123 106.763 191.893 106.534C191.664 106.306 191.354 106.177 191.03 106.177H119.902Z" fill="#707174"></path>
<path d="M119.902 115.134C119.578 115.134 119.267 115.263 119.038 115.491C118.809 115.72 118.68 116.03 118.68 116.353C118.68 116.677 118.809 116.987 119.038 117.216C119.267 117.444 119.578 117.573 119.902 117.573H191.03C191.354 117.573 191.664 117.444 191.893 117.216C192.123 116.987 192.251 116.677 192.251 116.353C192.251 116.03 192.123 115.72 191.893 115.491C191.664 115.263 191.354 115.134 191.03 115.134H119.902Z" fill="#707174"></path>
</g>
<defs>
<clipPath id="clip0_1_4">
<rect width="218" height="154" fill="white"></rect>
</clipPath>
</defs>
</symbol>
<symbol viewBox="0 0 24 24" fill="none" stroke="currentColor" stroke-width="2" stroke-linecap="round" stroke-linejoin="round" id="tabler/grid-4x4-outline">
  <path d="M3 6h18" ></path>
  <path d="M3 12h18" ></path>
  <path d="M3 18h18" ></path>
  <path d="M6 3v18" ></path>
  <path d="M12 3v18" ></path>
  <path d="M18 3v18" ></path>
</symbol>
<symbol viewBox="0 0 24 24" fill="none" stroke="currentColor" stroke-width="2" stroke-linecap="round" stroke-linejoin="round" id="tabler/grip-horizontal-outline">
  <path d="M5 9m-1 0a1 1 0 1 0 2 0a1 1 0 1 0 -2 0" ></path>
  <path d="M5 15m-1 0a1 1 0 1 0 2 0a1 1 0 1 0 -2 0" ></path>
  <path d="M12 9m-1 0a1 1 0 1 0 2 0a1 1 0 1 0 -2 0" ></path>
  <path d="M12 15m-1 0a1 1 0 1 0 2 0a1 1 0 1 0 -2 0" ></path>
  <path d="M19 9m-1 0a1 1 0 1 0 2 0a1 1 0 1 0 -2 0" ></path>
  <path d="M19 15m-1 0a1 1 0 1 0 2 0a1 1 0 1 0 -2 0" ></path>
</symbol>
<symbol viewBox="0 0 24 24" fill="none" stroke="currentColor" stroke-width="2" stroke-linecap="round" stroke-linejoin="round" id="tabler/grip-vertical-outline">
  <path d="M9 5m-1 0a1 1 0 1 0 2 0a1 1 0 1 0 -2 0" ></path>
  <path d="M9 12m-1 0a1 1 0 1 0 2 0a1 1 0 1 0 -2 0" ></path>
  <path d="M9 19m-1 0a1 1 0 1 0 2 0a1 1 0 1 0 -2 0" ></path>
  <path d="M15 5m-1 0a1 1 0 1 0 2 0a1 1 0 1 0 -2 0" ></path>
  <path d="M15 12m-1 0a1 1 0 1 0 2 0a1 1 0 1 0 -2 0" ></path>
  <path d="M15 19m-1 0a1 1 0 1 0 2 0a1 1 0 1 0 -2 0" ></path>
</symbol>
<symbol viewBox="0 0 24 24" fill="currentColor" id="tabler/help-circle-filled">
  <path d="M12 2c5.523 0 10 4.477 10 10a10 10 0 0 1 -19.995 .324l-.005 -.324l.004 -.28c.148 -5.393 4.566 -9.72 9.996 -9.72zm0 13a1 1 0 0 0 -.993 .883l-.007 .117l.007 .127a1 1 0 0 0 1.986 0l.007 -.117l-.007 -.127a1 1 0 0 0 -.993 -.883zm1.368 -6.673a2.98 2.98 0 0 0 -3.631 .728a1 1 0 0 0 1.44 1.383l.171 -.18a.98 .98 0 0 1 1.11 -.15a1 1 0 0 1 -.34 1.886l-.232 .012a1 1 0 0 0 .111 1.994a3 3 0 0 0 1.371 -5.673z" ></path>
</symbol>
<symbol viewBox="0 0 24 24" fill="currentColor" id="tabler/layout-grid-filled">
  <path d="M9 3a2 2 0 0 1 2 2v4a2 2 0 0 1 -2 2h-4a2 2 0 0 1 -2 -2v-4a2 2 0 0 1 2 -2z" ></path>
  <path d="M19 3a2 2 0 0 1 2 2v4a2 2 0 0 1 -2 2h-4a2 2 0 0 1 -2 -2v-4a2 2 0 0 1 2 -2z" ></path>
  <path d="M9 13a2 2 0 0 1 2 2v4a2 2 0 0 1 -2 2h-4a2 2 0 0 1 -2 -2v-4a2 2 0 0 1 2 -2z" ></path>
  <path d="M19 13a2 2 0 0 1 2 2v4a2 2 0 0 1 -2 2h-4a2 2 0 0 1 -2 -2v-4a2 2 0 0 1 2 -2z" ></path>
</symbol>
<symbol viewBox="0 0 24 24" fill="none" stroke="currentColor" stroke-width="2" stroke-linecap="round" stroke-linejoin="round" id="tabler/layout-grid-outline">
  <path d="M4 4m0 1a1 1 0 0 1 1 -1h4a1 1 0 0 1 1 1v4a1 1 0 0 1 -1 1h-4a1 1 0 0 1 -1 -1z" ></path>
  <path d="M14 4m0 1a1 1 0 0 1 1 -1h4a1 1 0 0 1 1 1v4a1 1 0 0 1 -1 1h-4a1 1 0 0 1 -1 -1z" ></path>
  <path d="M4 14m0 1a1 1 0 0 1 1 -1h4a1 1 0 0 1 1 1v4a1 1 0 0 1 -1 1h-4a1 1 0 0 1 -1 -1z" ></path>
  <path d="M14 14m0 1a1 1 0 0 1 1 -1h4a1 1 0 0 1 1 1v4a1 1 0 0 1 -1 1h-4a1 1 0 0 1 -1 -1z" ></path>
</symbol>
<symbol viewBox="0 0 24 24" fill="currentColor" id="tabler/moon-filled">
  <path d="M12 1.992a10 10 0 1 0 9.236 13.838c.341 -.82 -.476 -1.644 -1.298 -1.31a6.5 6.5 0 0 1 -6.864 -10.787l.077 -.08c.551 -.63 .113 -1.653 -.758 -1.653h-.266l-.068 -.006l-.06 -.002z" ></path>
</symbol>
<symbol viewBox="0 0 24 24" fill="none" stroke="currentColor" stroke-width="2" stroke-linecap="round" stroke-linejoin="round" id="tabler/moon-outline">
  <path d="M12 3c.132 0 .263 0 .393 0a7.5 7.5 0 0 0 7.92 12.446a9 9 0 1 1 -8.313 -12.454z" ></path>
</symbol>
<symbol viewBox="0 0 24 24" fill="none" stroke="currentColor" stroke-width="2" stroke-linecap="round" stroke-linejoin="round" id="tabler/pencil-outline">
  <path d="M4 20h4l10.5 -10.5a2.828 2.828 0 1 0 -4 -4l-10.5 10.5v4" ></path>
  <path d="M13.5 6.5l4 4" ></path>
</symbol>
<symbol viewBox="0 0 24 24" fill="none" stroke="currentColor" stroke-width="2" stroke-linecap="round" stroke-linejoin="round" id="tabler/plus-outline">
  <path d="M12 5l0 14" ></path>
  <path d="M5 12l14 0" ></path>
</symbol>
<symbol viewBox="0 0 24 24" fill="none" stroke="currentColor" stroke-width="2" stroke-linecap="round" stroke-linejoin="round" id="tabler/progress-outline">
  <path d="M10 20.777a8.942 8.942 0 0 1 -2.48 -.969" ></path>
  <path d="M14 3.223a9.003 9.003 0 0 1 0 17.554" ></path>
  <path d="M4.579 17.093a8.961 8.961 0 0 1 -1.227 -2.592" ></path>
  <path d="M3.124 10.5c.16 -.95 .468 -1.85 .9 -2.675l.169 -.305" ></path>
  <path d="M6.907 4.579a8.954 8.954 0 0 1 3.093 -1.356" ></path>
</symbol>
<symbol viewBox="0 0 24 24" fill="none" stroke="currentColor" stroke-width="2" stroke-linecap="round" stroke-linejoin="round" class="icon icon-tabler icons-tabler-outline icon-tabler-recycle" id="tabler/recycle"><path stroke="none" d="M0 0h24v24H0z" fill="none"></path><path d="M12 17l-2 2l2 2" ></path><path d="M10 19h9a2 2 0 0 0 1.75 -2.75l-.55 -1" ></path><path d="M8.536 11l-.732 -2.732l-2.732 .732" ></path><path d="M7.804 8.268l-4.5 7.794a2 2 0 0 0 1.506 2.89l1.141 .024" ></path><path d="M15.464 11l2.732 .732l.732 -2.732" ></path><path d="M18.196 11.732l-4.5 -7.794a2 2 0 0 0 -3.256 -.14l-.591 .976" ></path></symbol>
<symbol viewBox="0 0 24 24" fill="none" stroke="currentColor" stroke-width="2" stroke-linecap="round" stroke-linejoin="round" id="tabler/search-outline">
  <path d="M10 10m-7 0a7 7 0 1 0 14 0a7 7 0 1 0 -14 0" ></path>
  <path d="M21 21l-6 -6" ></path>
</symbol>
<symbol viewBox="0 0 24 24" fill="none" stroke="currentColor" stroke-width="2" stroke-linecap="round" stroke-linejoin="round" id="tabler/settings-2-outline">
  <path d="M19.875 6.27a2.225 2.225 0 0 1 1.125 1.948v7.284c0 .809 -.443 1.555 -1.158 1.948l-6.75 4.27a2.269 2.269 0 0 1 -2.184 0l-6.75 -4.27a2.225 2.225 0 0 1 -1.158 -1.948v-7.285c0 -.809 .443 -1.554 1.158 -1.947l6.75 -3.98a2.33 2.33 0 0 1 2.25 0l6.75 3.98h-.033z" ></path>
  <path d="M12 12m-3 0a3 3 0 1 0 6 0a3 3 0 1 0 -6 0" ></path>
</symbol>
<symbol viewBox="0 0 24 24" fill="currentColor" id="tabler/settings-filled">
  <path d="M14.647 4.081a.724 .724 0 0 0 1.08 .448c2.439 -1.485 5.23 1.305 3.745 3.744a.724 .724 0 0 0 .447 1.08c2.775 .673 2.775 4.62 0 5.294a.724 .724 0 0 0 -.448 1.08c1.485 2.439 -1.305 5.23 -3.744 3.745a.724 .724 0 0 0 -1.08 .447c-.673 2.775 -4.62 2.775 -5.294 0a.724 .724 0 0 0 -1.08 -.448c-2.439 1.485 -5.23 -1.305 -3.745 -3.744a.724 .724 0 0 0 -.447 -1.08c-2.775 -.673 -2.775 -4.62 0 -5.294a.724 .724 0 0 0 .448 -1.08c-1.485 -2.439 1.305 -5.23 3.744 -3.745a.722 .722 0 0 0 1.08 -.447c.673 -2.775 4.62 -2.775 5.294 0zm-2.647 4.919a3 3 0 1 0 0 6a3 3 0 0 0 0 -6z" ></path>
</symbol>
<symbol viewBox="0 0 24 24" fill="currentColor" id="tabler/star-filled">
  <path d="M8.243 7.34l-6.38 .925l-.113 .023a1 1 0 0 0 -.44 1.684l4.622 4.499l-1.09 6.355l-.013 .11a1 1 0 0 0 1.464 .944l5.706 -3l5.693 3l.1 .046a1 1 0 0 0 1.352 -1.1l-1.091 -6.355l4.624 -4.5l.078 -.085a1 1 0 0 0 -.633 -1.62l-6.38 -.926l-2.852 -5.78a1 1 0 0 0 -1.794 0l-2.853 5.78z" ></path>
</symbol>
<symbol viewBox="0 0 24 24" fill="currentColor" id="tabler/sun-filled">
  <path d="M12 19a1 1 0 0 1 .993 .883l.007 .117v1a1 1 0 0 1 -1.993 .117l-.007 -.117v-1a1 1 0 0 1 1 -1z" ></path>
  <path d="M18.313 16.91l.094 .083l.7 .7a1 1 0 0 1 -1.32 1.497l-.094 -.083l-.7 -.7a1 1 0 0 1 1.218 -1.567l.102 .07z" ></path>
  <path d="M7.007 16.993a1 1 0 0 1 .083 1.32l-.083 .094l-.7 .7a1 1 0 0 1 -1.497 -1.32l.083 -.094l.7 -.7a1 1 0 0 1 1.414 0z" ></path>
  <path d="M4 11a1 1 0 0 1 .117 1.993l-.117 .007h-1a1 1 0 0 1 -.117 -1.993l.117 -.007h1z" ></path>
  <path d="M21 11a1 1 0 0 1 .117 1.993l-.117 .007h-1a1 1 0 0 1 -.117 -1.993l.117 -.007h1z" ></path>
  <path d="M6.213 4.81l.094 .083l.7 .7a1 1 0 0 1 -1.32 1.497l-.094 -.083l-.7 -.7a1 1 0 0 1 1.217 -1.567l.102 .07z" ></path>
  <path d="M19.107 4.893a1 1 0 0 1 .083 1.32l-.083 .094l-.7 .7a1 1 0 0 1 -1.497 -1.32l.083 -.094l.7 -.7a1 1 0 0 1 1.414 0z" ></path>
  <path d="M12 2a1 1 0 0 1 .993 .883l.007 .117v1a1 1 0 0 1 -1.993 .117l-.007 -.117v-1a1 1 0 0 1 1 -1z" ></path>
  <path d="M12 7a5 5 0 1 1 -4.995 5.217l-.005 -.217l.005 -.217a5 5 0 0 1 4.995 -4.783z" ></path>
</symbol>
<symbol viewBox="0 0 24 24" fill="none" stroke="currentColor" stroke-width="2" stroke-linecap="round" stroke-linejoin="round" id="tabler/sun-outline">
  <path d="M12 12m-4 0a4 4 0 1 0 8 0a4 4 0 1 0 -8 0" ></path>
  <path d="M3 12h1m8 -9v1m8 8h1m-9 8v1m-6.4 -15.4l.7 .7m12.1 -.7l-.7 .7m0 11.4l.7 .7m-12.1 -.7l-.7 .7" ></path>
</symbol>
<symbol viewBox="0 0 24 24" fill="currentColor" id="tabler/table-filled">
  <path d="M4 11h4a1 1 0 0 1 1 1v8a1 1 0 0 1 -1 1h-2a3 3 0 0 1 -2.995 -2.824l-.005 -.176v-6a1 1 0 0 1 1 -1z" ></path>
  <path d="M21 12v6a3 3 0 0 1 -2.824 2.995l-.176 .005h-6a1 1 0 0 1 -1 -1v-8a1 1 0 0 1 1 -1h8a1 1 0 0 1 1 1z" ></path>
  <path d="M18 3a3 3 0 0 1 2.995 2.824l.005 .176v2a1 1 0 0 1 -1 1h-8a1 1 0 0 1 -1 -1v-4a1 1 0 0 1 1 -1h6z" ></path>
  <path d="M9 4v4a1 1 0 0 1 -1 1h-4a1 1 0 0 1 -1 -1v-2a3 3 0 0 1 2.824 -2.995l.176 -.005h2a1 1 0 0 1 1 1z" ></path>
</symbol>
<symbol viewBox="0 0 24 24" fill="none" stroke="currentColor" stroke-width="2" stroke-linecap="round" stroke-linejoin="round" id="tabler/tags-outline">
  <path d="M3 8v4.172a2 2 0 0 0 .586 1.414l5.71 5.71a2.41 2.41 0 0 0 3.408 0l3.592 -3.592a2.41 2.41 0 0 0 0 -3.408l-5.71 -5.71a2 2 0 0 0 -1.414 -.586h-4.172a2 2 0 0 0 -2 2z" ></path>
  <path d="M18 19l1.592 -1.592a4.82 4.82 0 0 0 0 -6.816l-4.592 -4.592" ></path>
  <path d="M7 10h-.01" ></path>
</symbol>
<symbol viewBox="0 0 24 24" fill="currentColor" id="tabler/trash-filled">
  <path d="M20 6a1 1 0 0 1 .117 1.993l-.117 .007h-.081l-.919 11a3 3 0 0 1 -2.824 2.995l-.176 .005h-8c-1.598 0 -2.904 -1.249 -2.992 -2.75l-.005 -.167l-.923 -11.083h-.08a1 1 0 0 1 -.117 -1.993l.117 -.007h16z" ></path>
  <path d="M14 2a2 2 0 0 1 2 2a1 1 0 0 1 -1.993 .117l-.007 -.117h-4l-.007 .117a1 1 0 0 1 -1.993 -.117a2 2 0 0 1 1.85 -1.995l.15 -.005h4z" ></path>
</symbol>
<symbol viewBox="0 0 24 24" fill="none" stroke="currentColor" stroke-width="2" stroke-linecap="round" stroke-linejoin="round" id="tabler/trash-outline">
  <path d="M4 7l16 0" ></path>
  <path d="M10 11l0 6" ></path>
  <path d="M14 11l0 6" ></path>
  <path d="M5 7l1 12a2 2 0 0 0 2 2h8a2 2 0 0 0 2 -2l1 -12" ></path>
  <path d="M9 7v-3a1 1 0 0 1 1 -1h4a1 1 0 0 1 1 1v3" ></path>
</symbol>
<symbol viewBox="0 0 24 24" fill="currentColor" id="tabler/user-filled">
  <path d="M12 2a5 5 0 1 1 -5 5l.005 -.217a5 5 0 0 1 4.995 -4.783z" ></path>
  <path d="M14 14a5 5 0 0 1 5 5v1a2 2 0 0 1 -2 2h-10a2 2 0 0 1 -2 -2v-1a5 5 0 0 1 5 -5h4z" ></path>
</symbol>
<symbol viewBox="0 0 24 24" fill="none" stroke="currentColor" stroke-width="2" stroke-linecap="round" stroke-linejoin="round" id="tabler/users-group-outline">
  <path d="M10 13a2 2 0 1 0 4 0a2 2 0 0 0 -4 0" ></path>
  <path d="M8 21v-1a2 2 0 0 1 2 -2h4a2 2 0 0 1 2 2v1" ></path>
  <path d="M15 5a2 2 0 1 0 4 0a2 2 0 0 0 -4 0" ></path>
  <path d="M17 10h2a2 2 0 0 1 2 2v1" ></path>
  <path d="M5 5a2 2 0 1 0 4 0a2 2 0 0 0 -4 0" ></path>
  <path d="M3 13v-1a2 2 0 0 1 2 -2h2" ></path>
</symbol>
<symbol viewBox="0 0 24 24" fill="none" stroke="currentColor" stroke-width="2" stroke-linecap="round" stroke-linejoin="round" id="tabler/users-outline">
  <path d="M9 7m-4 0a4 4 0 1 0 8 0a4 4 0 1 0 -8 0" ></path>
  <path d="M3 21v-2a4 4 0 0 1 4 -4h4a4 4 0 0 1 4 4v2" ></path>
  <path d="M16 3.13a4 4 0 0 1 0 7.75" ></path>
  <path d="M21 21v-2a4 4 0 0 0 -3 -3.85" ></path>
</symbol>
</defs>
</svg>
