<svg width="218" height="154" viewBox="0 0 218 154" fill="none" xmlns="http://www.w3.org/2000/svg">
<g clip-path="url(#clip0_1_4)">
<path d="M3.92892 153.964C2.88795 153.962 1.89031 153.548 1.15408 152.813C0.41785 152.078 0.00292347 151.082 0 150.043V3.92281C0.00247724 2.88348 0.416968 1.8874 1.15287 1.15232C1.88878 0.417237 2.88624 0.00294107 3.92721 0H213.847C214.888 0.00249661 215.885 0.416368 216.622 1.15114C217.358 1.88591 217.773 2.88181 217.775 3.92113V150.041C217.773 151.081 217.359 152.077 216.623 152.812C215.887 153.547 214.889 153.962 213.848 153.964H3.92892ZM3.05429 150.04C3.05493 150.272 3.14746 150.494 3.31167 150.658C3.47588 150.822 3.69842 150.914 3.93064 150.915H213.847C214.079 150.914 214.301 150.821 214.465 150.657C214.628 150.493 214.721 150.271 214.721 150.04V3.92281C214.72 3.6912 214.628 3.4694 214.463 3.30579C214.299 3.14217 214.077 3.05004 213.845 3.0495H3.92892C3.69696 3.0505 3.47481 3.14306 3.31095 3.30698C3.1471 3.47091 3.05483 3.69289 3.05429 3.92448V150.04Z" fill="#707174"/>
<path d="M179.368 35.6548C179.868 35.663 180.344 35.8669 180.695 36.2225C181.045 36.5782 181.241 37.0571 181.241 37.5559C181.241 38.0548 181.045 38.5335 180.695 38.8892C180.344 39.2448 179.868 39.4488 179.368 39.4572H131.626C131.375 39.4614 131.127 39.4164 130.894 39.3249C130.661 39.2334 130.449 39.0966 130.269 38.9231C130.089 38.7493 129.945 38.5419 129.846 38.3128C129.746 38.0836 129.692 37.837 129.688 37.5872C129.684 37.3373 129.729 37.0891 129.821 36.8568C129.913 36.6244 130.051 36.4124 130.225 36.233C130.399 36.0535 130.606 35.9101 130.836 35.8109C131.066 35.7116 131.313 35.6586 131.563 35.6548C131.584 35.6544 131.605 35.6544 131.626 35.6548H179.368Z" fill="#707174"/>
<path d="M179.368 49.0936C179.868 49.102 180.344 49.3059 180.694 49.6616C181.045 50.0172 181.241 50.496 181.241 50.995C181.241 51.4936 181.045 51.9727 180.694 52.3284C180.344 52.684 179.868 52.8879 179.368 52.896H131.625C131.375 52.9001 131.127 52.8548 130.894 52.7633C130.661 52.6714 130.449 52.535 130.27 52.3611C130.09 52.1877 129.946 51.9803 129.847 51.7512C129.747 51.5222 129.694 51.2755 129.69 51.0262C129.686 50.7765 129.731 50.5284 129.823 50.2962C129.915 50.0637 130.051 49.8522 130.225 49.6726C130.399 49.4931 130.607 49.3498 130.836 49.2503C131.066 49.1512 131.313 49.0978 131.563 49.0936C131.583 49.0932 131.604 49.0932 131.625 49.0936H179.368Z" fill="#707174"/>
<path d="M179.368 62.5328C179.868 62.5408 180.344 62.7447 180.695 63.1004C181.045 63.456 181.241 63.9348 181.241 64.4338C181.241 64.9327 181.045 65.4115 180.695 65.7671C180.344 66.1228 179.868 66.3267 179.368 66.3347H131.626C131.375 66.3393 131.127 66.2943 130.894 66.2028C130.661 66.111 130.449 65.9745 130.269 65.8007C130.089 65.6273 129.945 65.4199 129.846 65.1908C129.746 64.9613 129.692 64.7147 129.688 64.465C129.684 64.2153 129.729 63.9668 129.821 63.7347C129.913 63.5021 130.051 63.2902 130.225 63.1107C130.399 62.9315 130.606 62.7878 130.836 62.6887C131.066 62.5896 131.313 62.5366 131.563 62.5328C131.584 62.5324 131.605 62.5324 131.626 62.5328H179.368Z" fill="#707174"/>
<path d="M148.946 83.3079C148.946 82.0206 149.328 80.762 150.045 79.6916C150.761 78.6212 151.779 77.7868 152.97 77.2943C154.162 76.8014 155.473 76.6726 156.737 76.9238C158.002 77.175 159.164 77.7948 160.075 78.7051C160.987 79.6153 161.608 80.7753 161.86 82.0382C162.111 83.3007 161.982 84.6097 161.489 85.799C160.995 86.9883 160.16 88.0049 159.088 88.7204C158.015 89.4355 156.755 89.8175 155.465 89.8175C154.609 89.8175 153.761 89.649 152.971 89.3219C152.18 88.9948 151.461 88.5153 150.855 87.9108C150.25 87.3062 149.77 86.5888 149.442 85.799C149.115 85.0091 148.946 84.1629 148.946 83.3079Z" fill="#707174"/>
<path d="M152.892 82.666H154.821V80.7395C154.822 80.5694 154.889 80.4067 155.01 80.2866C155.13 80.1661 155.293 80.0987 155.463 80.0983C155.634 80.0979 155.797 80.165 155.918 80.2847C156.039 80.4048 156.107 80.5675 156.107 80.7375V82.666H158.037C158.208 82.666 158.371 82.7334 158.492 82.8539C158.612 82.9744 158.68 83.1375 158.68 83.3079C158.68 83.4783 158.612 83.6414 158.492 83.7619C158.371 83.8824 158.208 83.9502 158.037 83.9502H156.107V85.8763C156.107 86.0464 156.039 86.2091 155.918 86.3292C155.798 86.4489 155.635 86.5164 155.465 86.5164C155.294 86.5164 155.131 86.4489 155.011 86.3292C154.89 86.2091 154.822 86.0464 154.821 85.8763V83.9502H152.892C152.808 83.9502 152.724 83.9338 152.646 83.9018C152.568 83.8694 152.497 83.8225 152.437 83.763C152.377 83.7032 152.33 83.6327 152.297 83.5549C152.265 83.4771 152.248 83.3937 152.248 83.309C152.248 83.2248 152.264 83.1413 152.296 83.0636C152.329 82.9854 152.376 82.9145 152.435 82.8547C152.495 82.7952 152.566 82.7476 152.644 82.7152C152.721 82.6828 152.805 82.666 152.89 82.666H152.892Z" fill="#707174"/>
<path d="M87.8582 52.944C87.862 55.9847 87.3191 59.0011 86.2551 61.8501C85.7717 63.1549 85.1792 64.417 84.4832 65.6219C82.2456 69.5203 79.0168 72.7593 75.1233 75.0121C71.2299 77.2645 66.8099 78.4512 62.3098 78.4512C57.8101 78.4512 53.3898 77.2645 49.4963 75.0121C45.6029 72.7593 42.3745 69.5203 40.1368 65.6219C39.9104 65.2301 39.6955 64.8321 39.4924 64.4284C37.7558 60.989 36.8218 57.2011 36.7606 53.3499C36.6994 49.4984 37.5125 45.6831 39.1388 42.1903C40.7652 38.6971 43.1629 35.6174 46.1519 33.1817C49.1405 30.7461 52.643 29.0178 56.3963 28.1266C60.1497 27.2354 64.0561 27.2043 67.8232 28.0358C71.5903 28.8673 75.1199 30.5398 78.1471 32.9276C81.1743 35.3155 83.6208 38.3571 85.3025 41.8236C86.9843 45.2901 87.8582 49.0921 87.8582 52.944Z" fill="#707174"/>
<path d="M63.6377 57.2503C66.3354 57.2503 68.5219 55.0668 68.5219 52.3733C68.5219 49.6802 66.3354 47.4968 63.6377 47.4968C60.94 47.4968 58.7535 49.6802 58.7535 52.3733C58.7535 55.0668 60.94 57.2503 63.6377 57.2503Z" fill="#707174"/>
<path d="M39.4924 64.4284C41.6445 62.1062 44.5213 58.4197 47.2197 61.0835C48.5735 62.3399 50.6928 65.4538 52.7216 63.4183L68.5635 47.6012C68.8617 47.3074 69.2156 47.0756 69.6046 46.9204C69.994 46.7649 70.4102 46.6887 70.8294 46.6963C71.2482 46.7035 71.6617 46.7947 72.045 46.9639C72.4279 47.1331 72.7738 47.3771 73.0613 47.6817L86.2551 61.8501C85.7717 63.1549 85.1792 64.4166 84.4832 65.6219H40.1368L39.4924 64.4284Z" fill="#F2F3F4"/>
<path d="M84.495 124.09C84.3343 124.09 84.1751 124.122 84.0266 124.183C83.8785 124.244 83.7433 124.334 83.6295 124.447C83.5161 124.56 83.426 124.695 83.3642 124.843C83.3027 124.991 83.271 125.15 83.271 125.31C83.271 125.47 83.3027 125.629 83.3642 125.777C83.426 125.926 83.5161 126.06 83.6295 126.173C83.7433 126.286 83.8785 126.376 84.0266 126.437C84.1751 126.499 84.3343 126.53 84.495 126.53H97.3128C97.4735 126.53 97.6327 126.499 97.7812 126.437C97.9293 126.376 98.0645 126.286 98.1779 126.173C98.2917 126.06 98.3818 125.926 98.4432 125.777C98.5051 125.629 98.5368 125.47 98.5368 125.31C98.5368 125.15 98.5051 124.991 98.4432 124.843C98.3818 124.695 98.2917 124.56 98.1779 124.447C98.0645 124.334 97.9293 124.244 97.7812 124.183C97.6327 124.122 97.4735 124.09 97.3128 124.09H84.495Z" fill="#00579F"/>
<path d="M26.746 106.177C26.4221 106.177 26.1114 106.306 25.8823 106.534C25.6532 106.763 25.5245 107.073 25.5245 107.397C25.5245 107.72 25.6532 108.031 25.8823 108.259C26.1114 108.488 26.4221 108.617 26.746 108.617H97.874C98.1977 108.617 98.5085 108.488 98.7376 108.259C98.9667 108.031 99.0953 107.72 99.0953 107.397C99.0953 107.073 98.9667 106.763 98.7376 106.534C98.5085 106.306 98.1977 106.177 97.874 106.177H26.746Z" fill="#707174"/>
<path d="M26.746 115.134C26.4221 115.134 26.1114 115.263 25.8823 115.491C25.6532 115.72 25.5245 116.03 25.5245 116.353C25.5245 116.677 25.6532 116.987 25.8823 117.216C26.1114 117.444 26.4221 117.573 26.746 117.573H97.874C98.1977 117.573 98.5085 117.444 98.7376 117.216C98.9667 116.987 99.0953 116.677 99.0953 116.353C99.0953 116.03 98.9667 115.72 98.7376 115.491C98.5085 115.263 98.1977 115.134 97.874 115.134H26.746Z" fill="#707174"/>
<path d="M177.651 124.09C177.49 124.09 177.331 124.122 177.182 124.183C177.034 124.244 176.899 124.334 176.786 124.447C176.672 124.56 176.582 124.695 176.52 124.843C176.459 124.991 176.427 125.15 176.427 125.31C176.427 125.47 176.459 125.629 176.52 125.777C176.582 125.926 176.672 126.06 176.786 126.173C176.899 126.286 177.034 126.376 177.182 126.437C177.331 126.499 177.49 126.53 177.651 126.53H190.469C190.629 126.53 190.789 126.499 190.937 126.437C191.085 126.376 191.22 126.286 191.334 126.173C191.448 126.06 191.538 125.926 191.599 125.777C191.661 125.629 191.693 125.47 191.693 125.31C191.693 125.15 191.661 124.991 191.599 124.843C191.538 124.695 191.448 124.56 191.334 124.447C191.22 124.334 191.085 124.244 190.937 124.183C190.789 124.122 190.629 124.09 190.469 124.09H177.651Z" fill="#00579F"/>
<path d="M119.902 106.177C119.578 106.177 119.267 106.306 119.038 106.534C118.809 106.763 118.68 107.073 118.68 107.397C118.68 107.72 118.809 108.031 119.038 108.259C119.267 108.488 119.578 108.617 119.902 108.617H191.03C191.354 108.617 191.664 108.488 191.893 108.259C192.123 108.031 192.251 107.72 192.251 107.397C192.251 107.073 192.123 106.763 191.893 106.534C191.664 106.306 191.354 106.177 191.03 106.177H119.902Z" fill="#707174"/>
<path d="M119.902 115.134C119.578 115.134 119.267 115.263 119.038 115.491C118.809 115.72 118.68 116.03 118.68 116.353C118.68 116.677 118.809 116.987 119.038 117.216C119.267 117.444 119.578 117.573 119.902 117.573H191.03C191.354 117.573 191.664 117.444 191.893 117.216C192.123 116.987 192.251 116.677 192.251 116.353C192.251 116.03 192.123 115.72 191.893 115.491C191.664 115.263 191.354 115.134 191.03 115.134H119.902Z" fill="#707174"/>
</g>
<defs>
<clipPath id="clip0_1_4">
<rect width="218" height="154" fill="white"/>
</clipPath>
</defs>
</svg>
